<?xml version="1.0" encoding="UTF-8"?>
<svg width="28px" height="28px" viewBox="0 0 28 28" version="1.1" xmlns="http://www.w3.org/2000/svg" xmlns:xlink="http://www.w3.org/1999/xlink">
    <!-- Generator: Sketch 52.5 (67469) - http://www.bohemiancoding.com/sketch -->
    <title>calendar(1)</title>
    <desc>Created with Sketch.</desc>
    <g id="Page-1" stroke="none" stroke-width="1" fill="none" fill-rule="evenodd">
        <g id="calendar(1)" transform="translate(1.000000, 1.000000)" fill="#CCCCCC" stroke="#CCCCCC" stroke-width="0.5">
            <path d="M23.2080976,2.78496953 L20.4231281,2.78496953 L20.4231281,0.928341309 C20.4231281,0.415624067 20.007504,-1.77635684e-15 19.4947867,-1.77635684e-15 C18.9820695,-1.77635684e-15 18.5664454,0.415624067 18.5664454,0.928341309 L18.5664454,2.78496953 L7.42656729,2.78496953 L7.42656729,0.928341309 C7.42656729,0.415624067 7.01094323,-1.77635684e-15 6.49828038,-1.77635684e-15 C5.98561753,-1.77635684e-15 5.56993907,0.415624067 5.56993907,0.928341309 L5.56993907,2.78496953 L2.78496953,2.78496953 C1.2468722,2.78496953 0,4.03184173 0,5.56993907 L0,23.2080976 C0,24.7461949 1.2468722,25.9930671 2.78496953,25.9930671 L23.2080976,25.9930671 C24.7461949,25.9930671 25.9930671,24.7461949 25.9930671,23.2080976 L25.9930671,5.56993907 C25.9930671,4.03184173 24.7461949,2.78496953 23.2080976,2.78496953 Z M24.2137669,23.3241689 C24.2137669,23.8155173 23.7952558,24.213819 23.278977,24.213819 L2.71403796,24.213819 C2.19775921,24.213819 1.77924808,23.8155173 1.77924808,23.3241689 L1.77924808,11.7589261 L24.2137669,11.7589261 L24.2137669,23.3241689 Z M24.2138712,9.979678 L1.77924808,9.979678 L1.77924808,5.55446558 C1.77924808,4.94345217 2.19775911,4.44814627 2.71403774,4.44814627 L5.51835193,4.44814627 L5.51835193,6.66072007 C5.51835193,7.27173347 5.93686296,7.76703938 6.45314158,7.76703938 C6.96942021,7.76703938 7.38793124,7.27173347 7.38793124,6.66072007 L7.38793124,4.44814627 L18.605188,4.44814627 L18.605188,6.66072007 C18.605188,7.27173347 19.023699,7.76703938 19.5399777,7.76703938 C20.0562563,7.76703938 20.4747673,7.27173347 20.4747673,6.66072007 L20.4747673,4.44814627 L23.2790815,4.44814627 C23.7953601,4.44814627 24.2138712,4.94345217 24.2138712,5.55446558 L24.2138712,9.979678 Z" id="Shape" fill-rule="nonzero"></path>
            <g id="Group" transform="translate(5.416667, 14.083333)">
                <path d="M1.739805,0.497379184 L0.656487537,0.497379184 C0.357323959,0.497379184 0.114812936,0.895680962 0.114812936,1.38702929 C0.114812936,1.87837762 0.357323959,2.27667939 0.656487537,2.27667939 L1.739805,2.27667939 C2.03896858,2.27667939 2.2814796,1.87837762 2.2814796,1.38702929 C2.2814796,0.895680962 2.03896858,0.497379184 1.739805,0.497379184 Z" id="Path"></path>
                <path d="M7.96725148,0.497379184 L6.88393402,0.497379184 C6.58477044,0.497379184 6.34225941,0.895680962 6.34225941,1.38702929 C6.34225941,1.87837762 6.58477044,2.27667939 6.88393402,2.27667939 L7.96725148,2.27667939 C8.26641506,2.27667939 8.50892608,1.87837762 8.50892608,1.38702929 C8.50892608,0.895680962 8.26641506,0.497379184 7.96725148,0.497379184 Z" id="Path"></path>
                <path d="M14.194698,0.497379184 L13.1113805,0.497379184 C12.8122169,0.497379184 12.5697059,0.895680962 12.5697059,1.38702929 C12.5697059,1.87837762 12.8122169,2.27667939 13.1113805,2.27667939 L14.194698,2.27667939 C14.4938615,2.27667939 14.7363726,1.87837762 14.7363726,1.38702929 C14.7363408,0.895680962 14.4938298,0.497379184 14.194698,0.497379184 Z" id="Path"></path>
                <path d="M1.739805,5.52939906 L0.656487537,5.52939906 C0.357323959,5.52939906 0.114812936,5.92770084 0.114812936,6.41904916 C0.114812936,6.91039749 0.357323959,7.30864714 0.656487537,7.30864714 L1.739805,7.30864714 C2.03896858,7.30864714 2.2814796,6.91034536 2.2814796,6.41899704 C2.2814796,5.92764871 2.03896858,5.52939906 1.739805,5.52939906 Z" id="Path"></path>
                <path d="M7.96725148,5.52939906 L6.88393402,5.52939906 C6.58477044,5.52939906 6.34225941,5.92770084 6.34225941,6.41904916 C6.34225941,6.91039749 6.58477044,7.30869927 6.88393402,7.30869927 L7.96725148,7.30869927 C8.26641506,7.30869927 8.50892608,6.91039749 8.50892608,6.41904916 C8.50892608,5.92770084 8.26641506,5.52939906 7.96725148,5.52939906 Z" id="Path"></path>
                <path d="M14.194698,5.52939906 L13.1113805,5.52939906 C12.8122169,5.52939906 12.5697059,5.92770084 12.5697059,6.41904916 C12.5697059,6.91039749 12.8122169,7.30869927 13.1113805,7.30869927 L14.194698,7.30869927 C14.4938615,7.30869927 14.7363726,6.91039749 14.7363726,6.41904916 C14.7363726,5.92770084 14.4938298,5.52939906 14.194698,5.52939906 Z" id="Path"></path>
            </g>
        </g>
    </g>
</svg>