<?xml version="1.0" encoding="UTF-8"?>
<svg width="15px" height="15px" viewBox="0 0 15 15" version="1.1" xmlns="http://www.w3.org/2000/svg" xmlns:xlink="http://www.w3.org/1999/xlink">
    <!-- Generator: Sketch 52.5 (67469) - http://www.bohemiancoding.com/sketch -->
    <title>cancel</title>
    <desc>Created with Sketch.</desc>
    <g id="Page-1" stroke="none" stroke-width="1" fill="none" fill-rule="evenodd" stroke-linejoin="round">
        <g id="cancel" transform="translate(1.000000, 1.000000)" fill="#ED5B5B" stroke="#ED5B5B" stroke-width="1.2">
            <path d="M7.21795228,6.50070912 L12.8510237,0.867612346 C13.0493493,0.669286755 13.0493493,0.347740822 12.8510237,0.149440622 C12.6526981,-0.0488595786 12.3311521,-0.0488849691 12.1328519,0.149440622 L6.49975516,5.7825374 L0.866683774,0.149440622 C0.668358184,-0.0488849691 0.346812251,-0.0488849691 0.14851205,0.149440622 C-0.04978815,0.347766213 -0.0498135406,0.669312146 0.14851205,0.867612346 L5.78158344,6.50068373 L0.14851205,12.1337805 C-0.0498135406,12.3321061 -0.0498135406,12.653652 0.14851205,12.8519522 C0.24766215,12.9511023 0.377636379,13.0006647 0.507610608,13.0006647 C0.637584836,13.0006647 0.767533674,12.9511023 0.866709165,12.8519522 L6.49975516,7.21888085 L12.1328265,12.8519522 C12.2319766,12.9511023 12.3619509,13.0006647 12.4919251,13.0006647 C12.6218993,13.0006647 12.7518482,12.9511023 12.8510237,12.8519522 C13.0493493,12.6536266 13.0493493,12.3320807 12.8510237,12.1337805 L7.21795228,6.50070912 Z" id="Path"></path>
        </g>
    </g>
</svg>