<?xml version="1.0" encoding="UTF-8"?>
<svg width="20px" height="19px" viewBox="0 0 20 19" version="1.1" xmlns="http://www.w3.org/2000/svg" xmlns:xlink="http://www.w3.org/1999/xlink">
    <!-- Generator: Sketch 52.5 (67469) - http://www.bohemiancoding.com/sketch -->
    <title>percent</title>
    <desc>Created with Sketch.</desc>
    <g id="Page-1" stroke="none" stroke-width="1" fill="none" fill-rule="evenodd">
        <g id="percent" fill="#CCCCCC">
            <path d="M14.6880303,0.194015152 C14.1287121,-0.090530303 13.4445455,0.132424242 13.1600758,0.691969697 L4.70856061,17.3148485 C4.42409091,17.8743182 4.64704545,18.5583333 5.20651515,18.842803 C5.37151515,18.9266667 5.54734848,18.9664394 5.72060606,18.9664394 C6.13469697,18.9664394 6.53386364,18.7393182 6.7344697,18.3448485 L15.1859848,1.7219697 C15.4704545,1.1625 15.2475,0.478484848 14.6880303,0.194015152 Z" id="Path"></path>
            <path d="M8.61954545,5.6680303 C8.61954545,3.29159091 6.68613636,1.35818182 4.30969697,1.35818182 C1.93340909,1.35818182 0,3.29159091 0,5.6680303 C0,8.04439394 1.93340909,9.97780303 4.30977273,9.97780303 C6.68621212,9.97780303 8.61954545,8.04439394 8.61954545,5.6680303 Z M4.30977273,7.70507576 C3.18659091,7.70507576 2.27272727,6.79121212 2.27272727,5.6680303 C2.27272727,4.54477273 3.18659091,3.63090909 4.30977273,3.63090909 C5.4330303,3.63090909 6.34689394,4.54469697 6.34689394,5.6680303 C6.34681818,6.79121212 5.4330303,7.70507576 4.30977273,7.70507576 Z" id="Shape" fill-rule="nonzero"></path>
            <path d="M15.6360606,9.05909091 C13.2596212,9.05909091 11.3262121,10.9925 11.3262121,13.3688636 C11.3262121,15.7452273 13.2595455,17.6786364 15.6360606,17.6786364 C18.0124242,17.6786364 19.9458333,15.745303 19.9458333,13.3688636 C19.9458333,10.9924242 18.0125,9.05909091 15.6360606,9.05909091 Z M15.6360606,15.4058333 C14.512803,15.4058333 13.5989394,14.4919697 13.5989394,13.3687879 C13.5989394,12.2456061 14.512803,11.3317424 15.6360606,11.3317424 C16.7592424,11.3317424 17.6731061,12.2456061 17.6731061,13.3687879 C17.6731061,14.4919697 16.7593182,15.4058333 15.6360606,15.4058333 Z" id="Shape" fill-rule="nonzero"></path>
        </g>
    </g>
</svg>